<?xml version="1.0" standalone="no"?><!DOCTYPE svg PUBLIC "-//W3C//DTD SVG 1.1//EN" "http://www.w3.org/Graphics/SVG/1.1/DTD/svg11.dtd"><svg width="21" height="21" viewBox="0 0 21 21" version="1.1" xmlns="http://www.w3.org/2000/svg" xmlns:xlink="http://www.w3.org/1999/xlink"><defs><style type="text/css"><![CDATA[
@font-face { font-family: ifont; src: url("http://at.alicdn.com/t/font_1442373896_4754455.eot?#iefix") format("embedded-opentype"), url("http://at.alicdn.com/t/font_1442373896_4754455.woff") format("woff"), url("http://at.alicdn.com/t/font_1442373896_4754455.ttf") format("truetype"), url("http://at.alicdn.com/t/font_1442373896_4754455.svg#ifont") format("svg"); }

]]></style></defs><g class="transform-group"><g transform="scale(0.0205078125, 0.0205078125)"><path d="M529.408 749.665524l-83.18781 83.139048c-11.50781 11.50781-30.086095 11.50781-41.593905 0L54.808381 482.937905c-11.50781-11.50781-11.50781-30.086095 0-41.593905L137.99619 358.204952c11.410286-11.50781 30.086095-11.50781 41.545143 0l349.915429 349.866667C540.964571 719.579429 540.964571 738.255238 529.408 749.665524L529.408 749.665524zM962.852571 278.966857 437.881905 832.804571c-11.264 11.361524-29.647238 11.361524-41.008762 0l-82.066286-82.066286c-11.361524-11.264-11.361524-29.598476 0-41.008762L839.826286 155.940571c11.312762-11.312762 29.696-11.312762 41.057524 0l82.017524 82.066286C974.214095 249.319619 974.214095 267.702857 962.852571 278.966857L962.852571 278.966857z" fill="#11cd6e"></path></g></g></svg>